<?xml version="1.0"?>
<svg xmlns="http://www.w3.org/2000/svg" xmlns:xlink="http://www.w3.org/1999/xlink" xmlns:svgjs="http://svgjs.com/svgjs" version="1.1" width="512" height="512" x="0" y="0" viewBox="0 0 512 512" style="enable-background:new 0 0 512 512" xml:space="preserve" class=""><g><g xmlns="http://www.w3.org/2000/svg"><path d="m348.438 85.67h-38.986c-2.636 22.935-12.828 44.15-29.37 60.691l-139.495 139.493-89.979-89.979c-5.879 17.053-8.939 35.055-8.939 53.356 0 90.189 73.374 163.562 163.563 163.562h24.444l106.595 99.207v-99.205h12.166c90.189 0 163.562-73.374 163.562-163.562s-73.373-163.563-163.561-163.563zm-115.755 184.503h-31.733v-30.026h31.733zm65.064 0h-31.733v-30.026h31.733zm65.065 0h-31.733v-30.026h31.733z" fill="#eff6ff" data-original="#000000" style="" class=""/><path d="m259.576 125.855c28.752-28.753 28.752-75.537 0-104.29-28.754-28.752-75.537-28.752-104.29 0l-14.698 14.699-14.699-14.699c-28.753-28.754-75.537-28.753-104.29.001-13.928 13.927-21.599 32.446-21.599 52.144s7.67 38.216 21.599 52.145l118.988 118.988z" fill="#eff6ff" data-original="#000000" style="" class=""/></g></g></svg>
